<?xml version="1.0" standalone="no"?><!DOCTYPE svg PUBLIC "-//W3C//DTD SVG 1.1//EN" "http://www.w3.org/Graphics/SVG/1.1/DTD/svg11.dtd"><svg t="1605066789620" class="icon" viewBox="0 0 1024 1024" version="1.1" xmlns="http://www.w3.org/2000/svg" p-id="567" xmlns:xlink="http://www.w3.org/1999/xlink" width="200" height="200"><defs><style type="text/css">@font-face { font-family: "Material Icons"; font-style: normal; font-weight: 400; src: url("https://fonts.gstatic.com/s/materialicons/v67/flUhRq6tzZclQEJ-Vdg-IuiaDsNc.woff2") format("woff2"); }
</style></defs><path d="M512.121262 64.50206c-246.925832 0-447.805956 200.867844-447.805956 447.792653 0 231.79318 173.783998 423.416476 404.257114 445.706131 1.768273 0.185218 3.524267 0.264013 5.269004 0.264013 27.516704 0 51.059909-20.915355 53.766554-48.883337 2.879584-29.736255-18.895349-56.171324-48.63058-59.050907-174.723394-16.900925-306.490439-162.228825-306.490439-338.0359 0-187.267081 152.35085-339.619978 339.633281-339.619978 187.265034 0 339.604628 152.352897 339.604628 339.619978 0 54.29765-12.411681 106.138342-36.904515 154.09661-13.586436 26.593681-3.037173 59.183937 23.568788 72.759117 26.608008 13.597693 59.183937 3.037173 72.77242-23.557532 32.338522-63.330374 48.735981-131.729184 48.735981-203.298196C959.898565 265.369903 759.032768 64.50206 512.121262 64.50206zM724.448088 587.956949c24.190959 3.433192 46.309722-13.202697 49.782823-37.20946 1.832741-12.703323 2.75781-25.644053 2.75781-38.47836 0-147.468656-119.988792-267.445168-267.470751-267.445168-147.507542 0-267.509636 119.975489-267.509636 267.445168 0 111.762433 70.432119 212.698287 175.262676 251.202229 4.991688 1.821485 10.116405 2.693342 15.146978 2.693342 17.891486 0 34.715663-11.010775 41.250496-28.810163 8.370645-22.766516-3.314489-48.012504-26.106588-56.384172-70.377884-25.856901-117.66384-93.646843-117.66384-168.701237 0-99.007945 80.574107-179.555445 179.620937-179.555445 99.022271 0 179.581028 80.546477 179.581028 179.555445 0 8.662287-0.621147 17.350157-1.861394 25.907043C683.765527 562.180889 700.431092 584.471568 724.448088 587.956949zM571.54056 486.86453c-22.025643-32.298614-58.668191-34.939767-83.559091-20.494777-22.564925 13.072737-36.905538 39.983643-23.081695 73.311703 8.861832 21.313422 146.014538 323.484486 164.91398 360.748181 24.623817 48.54053 84.983533 61.533448 124.885312 38.582737 36.616966-21.071921 60.373019-74.79038 26.873044-127.423111C748.085438 758.956531 585.564971 507.381819 571.54056 486.86453z" p-id="568"></path></svg>