<?xml version="1.0" standalone="no"?><!DOCTYPE svg PUBLIC "-//W3C//DTD SVG 1.1//EN" "http://www.w3.org/Graphics/SVG/1.1/DTD/svg11.dtd"><svg t="1617939943885" class="icon" viewBox="0 0 1024 1024" version="1.1" xmlns="http://www.w3.org/2000/svg" p-id="4753" xmlns:xlink="http://www.w3.org/1999/xlink" width="200" height="200"><defs><style type="text/css"></style></defs><path d="M449.23871 385.156129c-27.086452-21.80129-43.602581-54.833548-43.602581-92.490323 0-66.064516 53.512258-118.916129 118.916129-118.916129 66.064516 0 118.916129 53.512258 118.916129 118.916129 0 38.978065-18.498065 73.992258-48.227097 95.793549-10.570323 7.927742-12.552258 23.122581-4.624516 33.692903 7.927742 10.570323 23.122581 12.552258 33.032258 4.624516 40.96-30.389677 67.385806-79.277419 67.385807-134.110968 0-92.490323-74.652903-167.143226-167.143226-167.143225S356.748387 200.175484 356.748387 292.665806c0 52.190968 23.783226 98.436129 61.44 129.486452 9.909677 8.588387 25.104516 6.606452 33.692903-3.303226 9.249032-10.570323 7.267097-25.104516-2.64258-33.692903z" p-id="4754"></path><path d="M638.183226 554.941935c-31.050323 0-58.136774-27.747097-58.136774-58.136774-1.981935-27.086452 17.176774-56.154839 45.584516-70.689032 11.891613-5.945806 23.122581-29.729032 18.498064-42.28129-4.624516-12.552258-32.371613-5.945806-43.60258 0.660645-37.656774 22.461935-64.082581 50.209032-68.046452 112.309677-3.303226 56.815484 48.227097 105.703226 105.703226 105.703226 13.212903 0 21.80129-13.212903 21.80129-26.425806S651.396129 554.941935 638.183226 554.941935l-1.981936-2.64258 1.981936 2.64258z" p-id="4755"></path><path d="M638.183226 602.508387h93.150968c13.212903 0 23.783226 10.570323 23.783225 23.783226v95.132903c0 13.212903-10.570323 23.783226-23.783225 23.783226h-429.419355c-13.212903 0-23.783226-10.570323-23.783226-23.783226V626.291613c0-13.212903 10.570323-23.783226 23.783226-23.783226h110.988387c13.212903 0 23.783226-10.570323 23.783226-23.783226S426.116129 554.941935 412.903226 554.941935H301.914839c-39.63871 0-71.349677 31.710968-71.349678 71.349678v95.132903c0 39.63871 31.710968 71.349677 71.349678 71.349678h429.419355c39.63871 0 71.349677-31.710968 71.349677-71.349678V626.291613c0-39.63871-31.710968-71.349677-71.349677-71.349678H638.183226c-13.212903 0-23.783226 10.570323-23.783226 23.783226s10.570323 23.783226 23.783226 23.783226z" p-id="4756"></path><path d="M254.348387 888.567742h524.552258c13.212903 0 23.783226-10.570323 23.783226-23.783226s-10.570323-23.783226-23.783226-23.783226H254.348387c-13.212903 0-23.783226 10.570323-23.783226 23.783226s10.570323 23.783226 23.783226 23.783226" p-id="4757"></path><path d="M418.849032 422.152258c35.014194 24.443871 40.299355 31.710968 40.96 64.082581 0 33.032258-22.461935 68.707097-46.245161 68.707096-13.212903 0-33.032258 13.212903-33.032258 26.425807s19.819355 21.140645 33.032258 21.140645c63.421935-2.642581 92.490323-61.44 93.811613-116.273548 0-55.494194-32.371613-87.205161-70.028387-112.309678-11.230968-7.267097-29.729032-7.267097-36.996129 3.303226-7.267097 11.230968-4.624516 25.765161 6.606451 33.032258l11.891613 11.891613z" p-id="4758"></path></svg>